<svg xmlns="http://www.w3.org/2000/svg" xmlns:xlink="http://www.w3.org/1999/xlink" width="300" zoomAndPan="magnify" viewBox="0 0 224.87999 58.499998" height="78" preserveAspectRatio="xMidYMid meet" version="1.0"><defs><g/></defs><g fill="#ffffff" fill-opacity="1"><g transform="translate(10.504488, 25.489028)"><g><path d="M 8.125 -5.394531 C 9.675781 -5.855469 10.769531 -7.296875 10.769531 -9.085938 C 10.769531 -11.316406 9.109375 -13.105469 6.859375 -13.105469 L 1.289062 -13.105469 L 1.289062 0 L 4.171875 0 L 4.171875 -5.066406 L 5.332031 -5.066406 L 8.5625 0 L 11.796875 0 Z M 6.421875 -7.449219 L 4.171875 -7.449219 L 4.171875 -10.550781 L 6.421875 -10.550781 C 7.339844 -10.550781 8.015625 -9.894531 8.015625 -9 C 8.015625 -8.082031 7.339844 -7.449219 6.421875 -7.449219 Z M 6.421875 -7.449219 "/></g></g></g><g fill="#ffffff" fill-opacity="1"><g transform="translate(22.184106, 25.489028)"><g><path d="M 7.535156 0.175781 C 11.273438 0.175781 14.265625 -2.839844 14.265625 -6.554688 C 14.265625 -10.265625 11.273438 -13.28125 7.535156 -13.28125 C 3.824219 -13.28125 0.808594 -10.265625 0.808594 -6.554688 C 0.808594 -2.839844 3.824219 0.175781 7.535156 0.175781 Z M 7.535156 -2.644531 C 5.332031 -2.644531 3.648438 -4.347656 3.648438 -6.554688 C 3.648438 -8.761719 5.332031 -10.464844 7.535156 -10.464844 C 9.765625 -10.464844 11.445312 -8.761719 11.445312 -6.554688 C 11.445312 -4.347656 9.765625 -2.644531 7.535156 -2.644531 Z M 7.535156 -2.644531 "/></g></g></g><g fill="#ffffff" fill-opacity="1"><g transform="translate(37.269376, 25.489028)"><g><path d="M 7.535156 0.175781 C 10.136719 0.175781 12.386719 -1.289062 13.5 -3.429688 L 11.011719 -4.71875 C 10.375 -3.472656 9.085938 -2.644531 7.535156 -2.644531 C 5.332031 -2.644531 3.648438 -4.347656 3.648438 -6.554688 C 3.648438 -8.761719 5.332031 -10.464844 7.535156 -10.464844 C 9.085938 -10.464844 10.375 -9.632812 11.011719 -8.386719 L 13.5 -9.675781 C 12.386719 -11.816406 10.136719 -13.28125 7.535156 -13.28125 C 3.824219 -13.28125 0.808594 -10.265625 0.808594 -6.554688 C 0.808594 -2.839844 3.824219 0.175781 7.535156 0.175781 Z M 7.535156 0.175781 "/></g></g></g><g fill="#ffffff" fill-opacity="1"><g transform="translate(51.328582, 25.489028)"><g><path d="M 9.503906 -13.105469 L 9.503906 -7.84375 L 4.171875 -7.84375 L 4.171875 -13.105469 L 1.289062 -13.105469 L 1.289062 0 L 4.171875 0 L 4.171875 -5.285156 L 9.503906 -5.285156 L 9.503906 0 L 12.363281 0 L 12.363281 -13.105469 Z M 9.503906 -13.105469 "/></g></g></g><g fill="#ffffff" fill-opacity="1"><g transform="translate(64.994826, 25.489028)"><g><path d="M 9.285156 -10.574219 L 9.285156 -13.105469 L 1.398438 -13.105469 L 1.398438 0 L 4.28125 0 L 4.28125 -5.285156 L 8.5625 -5.285156 L 8.5625 -7.820312 L 4.28125 -7.820312 L 4.28125 -10.574219 Z M 9.285156 -10.574219 "/></g></g></g><g fill="#ffffff" fill-opacity="1"><g transform="translate(74.491342, 25.489028)"><g><path d="M 7.535156 0.175781 C 11.273438 0.175781 14.265625 -2.839844 14.265625 -6.554688 C 14.265625 -10.265625 11.273438 -13.28125 7.535156 -13.28125 C 3.824219 -13.28125 0.808594 -10.265625 0.808594 -6.554688 C 0.808594 -2.839844 3.824219 0.175781 7.535156 0.175781 Z M 7.535156 -2.644531 C 5.332031 -2.644531 3.648438 -4.347656 3.648438 -6.554688 C 3.648438 -8.761719 5.332031 -10.464844 7.535156 -10.464844 C 9.765625 -10.464844 11.445312 -8.761719 11.445312 -6.554688 C 11.445312 -4.347656 9.765625 -2.644531 7.535156 -2.644531 Z M 7.535156 -2.644531 "/></g></g></g><g fill="#ffffff" fill-opacity="1"><g transform="translate(89.576612, 25.489028)"><g><path d="M 8.125 -5.394531 C 9.675781 -5.855469 10.769531 -7.296875 10.769531 -9.085938 C 10.769531 -11.316406 9.109375 -13.105469 6.859375 -13.105469 L 1.289062 -13.105469 L 1.289062 0 L 4.171875 0 L 4.171875 -5.066406 L 5.332031 -5.066406 L 8.5625 0 L 11.796875 0 Z M 6.421875 -7.449219 L 4.171875 -7.449219 L 4.171875 -10.550781 L 6.421875 -10.550781 C 7.339844 -10.550781 8.015625 -9.894531 8.015625 -9 C 8.015625 -8.082031 7.339844 -7.449219 6.421875 -7.449219 Z M 6.421875 -7.449219 "/></g></g></g><g fill="#ffffff" fill-opacity="1"><g transform="translate(101.25623, 25.489028)"><g><path d="M 1.289062 0 L 5.613281 0 C 9.21875 0 12.167969 -2.925781 12.167969 -6.554688 C 12.167969 -10.179688 9.21875 -13.105469 5.613281 -13.105469 L 1.289062 -13.105469 Z M 4.171875 -2.554688 L 4.171875 -10.550781 L 5.59375 -10.550781 C 7.667969 -10.550781 9.285156 -8.824219 9.285156 -6.554688 C 9.285156 -4.28125 7.667969 -2.554688 5.59375 -2.554688 Z M 4.171875 -2.554688 "/></g></g></g><g fill="#ffffff" fill-opacity="1"><g transform="translate(114.223885, 25.489028)"><g/></g></g><g fill="#ffffff" fill-opacity="1"><g transform="translate(119.463338, 25.489028)"><g><path d="M 6.859375 -13.105469 L 1.289062 -13.105469 L 1.289062 0 L 4.171875 0 L 4.171875 -5.308594 L 6.859375 -5.308594 C 9.066406 -5.308594 10.769531 -6.945312 10.769531 -9.152344 C 10.769531 -11.335938 9.066406 -13.105469 6.859375 -13.105469 Z M 6.402344 -7.6875 L 4.171875 -7.6875 L 4.171875 -10.574219 L 6.402344 -10.574219 C 7.316406 -10.574219 8.015625 -9.984375 8.015625 -9.132812 C 8.015625 -8.257812 7.316406 -7.6875 6.402344 -7.6875 Z M 6.402344 -7.6875 "/></g></g></g><g fill="#ffffff" fill-opacity="1"><g transform="translate(130.31338, 25.489028)"><g><path d="M 4.171875 -2.554688 L 4.171875 -13.105469 L 1.289062 -13.105469 L 1.289062 0 L 8.519531 0 L 8.519531 -2.554688 Z M 4.171875 -2.554688 "/></g></g></g><g fill="#ffffff" fill-opacity="1"><g transform="translate(138.871159, 25.489028)"><g><path d="M 6.664062 0.175781 C 9.765625 0.175781 12.125 -1.726562 12.125 -4.195312 L 12.125 -13.105469 L 9.242188 -13.105469 L 9.242188 -4.742188 C 9.242188 -3.40625 8.125 -2.382812 6.664062 -2.382812 C 5.222656 -2.382812 4.105469 -3.40625 4.105469 -4.742188 L 4.105469 -13.105469 L 1.222656 -13.105469 L 1.222656 -4.195312 C 1.222656 -1.726562 3.605469 0.175781 6.664062 0.175781 Z M 6.664062 0.175781 "/></g></g></g><g fill="#ffffff" fill-opacity="1"><g transform="translate(152.20994, 25.489028)"><g><path d="M 12.714844 -13.105469 L 8.542969 -4.042969 L 4.414062 -13.105469 L 1.289062 -13.105469 L 1.289062 0 L 4.171875 0 L 4.171875 -7.820312 L 7.710938 0 L 9.371094 0 L 12.933594 -7.796875 L 12.933594 0 L 15.816406 0 L 15.816406 -13.105469 Z M 12.714844 -13.105469 "/></g></g></g><g fill="#ffffff" fill-opacity="1"><g transform="translate(169.30366, 25.489028)"><g><path d="M 9.175781 -6.640625 C 10.15625 -7.164062 10.792969 -8.082031 10.792969 -9.457031 C 10.792969 -11.773438 9.042969 -13.105469 6.835938 -13.105469 L 1.289062 -13.105469 L 1.289062 0 L 7.339844 0 C 9.523438 0 11.226562 -1.265625 11.226562 -3.582031 C 11.226562 -5.175781 10.398438 -6.160156 9.175781 -6.640625 Z M 7.90625 -9.152344 C 7.90625 -8.386719 7.273438 -7.734375 6.488281 -7.734375 L 4.171875 -7.734375 L 4.171875 -10.550781 L 6.488281 -10.550781 C 7.273438 -10.550781 7.90625 -9.9375 7.90625 -9.152344 Z M 6.925781 -2.554688 L 4.171875 -2.554688 L 4.171875 -5.375 L 6.925781 -5.375 C 7.734375 -5.375 8.34375 -4.71875 8.34375 -3.953125 C 8.34375 -3.167969 7.734375 -2.554688 6.925781 -2.554688 Z M 6.925781 -2.554688 "/></g></g></g><g fill="#ffffff" fill-opacity="1"><g transform="translate(181.157928, 25.489028)"><g><path d="M 1.398438 0 L 4.28125 0 L 4.28125 -13.105469 L 1.398438 -13.105469 Z M 1.398438 0 "/></g></g></g><g fill="#ffffff" fill-opacity="1"><g transform="translate(186.812169, 25.489028)"><g><path d="M 10.703125 -13.105469 L 10.703125 -4.433594 L 4.257812 -13.105469 L 1.289062 -13.105469 L 1.289062 0 L 4.171875 0 L 4.171875 -8.695312 L 10.59375 0 L 13.566406 0 L 13.566406 -13.105469 Z M 10.703125 -13.105469 "/></g></g></g><g fill="#ffffff" fill-opacity="1"><g transform="translate(201.679125, 25.489028)"><g><path d="M 7.535156 -7.1875 L 7.535156 -4.9375 L 11.140625 -4.9375 C 10.527344 -3.5625 9.175781 -2.644531 7.558594 -2.644531 C 5.351562 -2.644531 3.648438 -4.347656 3.648438 -6.554688 C 3.648438 -8.761719 5.351562 -10.464844 7.558594 -10.464844 C 9.109375 -10.464844 10.375 -9.632812 11.03125 -8.386719 L 13.523438 -9.675781 C 12.386719 -11.816406 10.136719 -13.28125 7.558594 -13.28125 C 3.824219 -13.28125 0.832031 -10.265625 0.832031 -6.554688 C 0.832031 -2.839844 3.824219 0.175781 7.558594 0.175781 C 11.273438 0.175781 14.285156 -2.839844 14.285156 -6.554688 L 14.285156 -7.1875 Z M 7.535156 -7.1875 "/></g></g></g><g fill="#ffffff" fill-opacity="1"><g transform="translate(5.606326, 44.025182)"><g/></g></g><g fill="#ffffff" fill-opacity="1"><g transform="translate(14.072655, 44.025182)"><g><path d="M 1.808594 -0.84375 L 1.808594 -7.925781 L 0.964844 -7.925781 L 0.964844 0 L 4.753906 0 L 4.753906 -0.84375 Z M 1.808594 -0.84375 "/></g></g></g><g fill="#ffffff" fill-opacity="1"><g transform="translate(24.228909, 44.025182)"><g><path d="M 4.714844 0.105469 C 6.972656 0.105469 8.785156 -1.71875 8.785156 -3.960938 C 8.785156 -6.207031 6.972656 -8.03125 4.714844 -8.03125 C 2.46875 -8.03125 0.648438 -6.207031 0.648438 -3.960938 C 0.648438 -1.71875 2.46875 0.105469 4.714844 0.105469 Z M 4.714844 -0.738281 C 2.933594 -0.738281 1.492188 -2.167969 1.492188 -3.960938 C 1.492188 -5.757812 2.933594 -7.1875 4.714844 -7.1875 C 6.511719 -7.1875 7.9375 -5.757812 7.9375 -3.960938 C 7.9375 -2.167969 6.511719 -0.738281 4.714844 -0.738281 Z M 4.714844 -0.738281 "/></g></g></g><g fill="#ffffff" fill-opacity="1"><g transform="translate(38.953247, 44.025182)"><g><path d="M 4.714844 0.105469 C 6.234375 0.105469 7.554688 -0.726562 8.253906 -1.953125 L 7.527344 -2.363281 C 6.988281 -1.386719 5.929688 -0.738281 4.714844 -0.738281 C 2.933594 -0.738281 1.492188 -2.167969 1.492188 -3.960938 C 1.492188 -5.757812 2.933594 -7.1875 4.714844 -7.1875 C 5.929688 -7.1875 6.988281 -6.539062 7.527344 -5.5625 L 8.253906 -5.96875 C 7.554688 -7.199219 6.234375 -8.03125 4.714844 -8.03125 C 2.46875 -8.03125 0.648438 -6.207031 0.648438 -3.960938 C 0.648438 -1.71875 2.46875 0.105469 4.714844 0.105469 Z M 4.714844 0.105469 "/></g></g></g><g fill="#ffffff" fill-opacity="1"><g transform="translate(52.925031, 44.025182)"><g><path d="M 5.691406 0 L 6.867188 0 L 3.105469 -4.265625 L 6.722656 -7.925781 L 5.546875 -7.925781 L 2.363281 -4.675781 L 1.808594 -4.675781 L 1.808594 -7.925781 L 0.964844 -7.925781 L 0.964844 0 L 1.808594 0 L 1.808594 -3.882812 L 2.378906 -3.882812 Z M 5.691406 0 "/></g></g></g><g fill="#ffffff" fill-opacity="1"><g transform="translate(64.982455, 44.025182)"><g><path d="M 2.957031 0.105469 C 4.304688 0.105469 5.402344 -0.699219 5.402344 -2.085938 C 5.402344 -4.78125 1.546875 -4.121094 1.546875 -6.011719 C 1.546875 -6.800781 2.191406 -7.1875 2.933594 -7.1875 C 3.539062 -7.1875 4.042969 -6.933594 4.359375 -6.484375 L 5.019531 -7.039062 C 4.582031 -7.59375 3.816406 -8.03125 2.90625 -8.03125 C 1.691406 -8.03125 0.699219 -7.238281 0.699219 -5.945312 C 0.699219 -3.394531 4.558594 -4.027344 4.558594 -2.0625 C 4.558594 -1.214844 3.855469 -0.738281 2.972656 -0.738281 C 2.074219 -0.738281 1.425781 -1.226562 1.148438 -1.953125 L 0.382812 -1.503906 C 0.792969 -0.527344 1.785156 0.105469 2.957031 0.105469 Z M 2.957031 0.105469 "/></g></g></g><g fill="#ffffff" fill-opacity="1"><g transform="translate(76.049686, 44.025182)"><g><path d="M 7.953125 -7.925781 L 4.902344 -1.015625 L 1.863281 -7.925781 L 0.964844 -7.925781 L 0.964844 0 L 1.808594 0 L 1.808594 -6.261719 L 4.542969 0 L 5.242188 0 L 8.003906 -6.234375 L 8.003906 0 L 8.835938 0 L 8.835938 -7.925781 Z M 7.953125 -7.925781 "/></g></g></g><g fill="#ffffff" fill-opacity="1"><g transform="translate(91.130491, 44.025182)"><g><path d="M 1.03125 0 L 1.875 0 L 1.875 -7.925781 L 1.03125 -7.925781 Z M 1.03125 0 "/></g></g></g><g fill="#ffffff" fill-opacity="1"><g transform="translate(99.306365, 44.025182)"><g><path d="M 5.351562 -7.925781 L 0.117188 -7.925781 L 0.117188 -7.078125 L 2.3125 -7.078125 L 2.3125 0 L 3.15625 0 L 3.15625 -7.078125 L 5.351562 -7.078125 Z M 5.351562 -7.925781 "/></g></g></g><g fill="#ffffff" fill-opacity="1"><g transform="translate(110.056728, 44.025182)"><g><path d="M 6.183594 -7.925781 L 6.183594 -4.386719 L 1.808594 -4.386719 L 1.808594 -7.925781 L 0.964844 -7.925781 L 0.964844 0 L 1.808594 0 L 1.808594 -3.539062 L 6.183594 -3.539062 L 6.183594 0 L 7.027344 0 L 7.027344 -7.925781 Z M 6.183594 -7.925781 "/></g></g></g><g fill="#ffffff" fill-opacity="1"><g transform="translate(123.328781, 44.025182)"><g/></g></g><g fill="#ffffff" fill-opacity="1"><g transform="translate(131.795107, 44.025182)"><g><path d="M 2.957031 0.105469 C 4.304688 0.105469 5.402344 -0.699219 5.402344 -2.085938 C 5.402344 -4.78125 1.546875 -4.121094 1.546875 -6.011719 C 1.546875 -6.800781 2.191406 -7.1875 2.933594 -7.1875 C 3.539062 -7.1875 4.042969 -6.933594 4.359375 -6.484375 L 5.019531 -7.039062 C 4.582031 -7.59375 3.816406 -8.03125 2.90625 -8.03125 C 1.691406 -8.03125 0.699219 -7.238281 0.699219 -5.945312 C 0.699219 -3.394531 4.558594 -4.027344 4.558594 -2.0625 C 4.558594 -1.214844 3.855469 -0.738281 2.972656 -0.738281 C 2.074219 -0.738281 1.425781 -1.226562 1.148438 -1.953125 L 0.382812 -1.503906 C 0.792969 -0.527344 1.785156 0.105469 2.957031 0.105469 Z M 2.957031 0.105469 "/></g></g></g><g fill="#ffffff" fill-opacity="1"><g transform="translate(142.862338, 44.025182)"><g><path d="M 5.363281 -7.105469 L 5.363281 -7.925781 L 1.03125 -7.925781 L 1.03125 0 L 5.363281 0 L 5.363281 -0.820312 L 1.875 -0.820312 L 1.875 -3.554688 L 4.914062 -3.554688 L 4.914062 -4.371094 L 1.875 -4.371094 L 1.875 -7.105469 Z M 5.363281 -7.105469 "/></g></g></g><g fill="#ffffff" fill-opacity="1"><g transform="translate(154.299235, 44.025182)"><g><path d="M 4.175781 -3.621094 C 5.21875 -3.765625 6.011719 -4.636719 6.011719 -5.707031 C 6.011719 -6.949219 5.019531 -7.925781 3.804688 -7.925781 L 0.964844 -7.925781 L 0.964844 0 L 1.808594 0 L 1.808594 -3.578125 L 3.300781 -3.578125 L 5.546875 0 L 6.511719 0 Z M 1.808594 -4.386719 L 1.808594 -7.078125 L 3.75 -7.078125 C 4.542969 -7.078125 5.164062 -6.523438 5.164062 -5.734375 C 5.164062 -4.925781 4.558594 -4.386719 3.75 -4.386719 Z M 1.808594 -4.386719 "/></g></g></g><g fill="#ffffff" fill-opacity="1"><g transform="translate(166.211428, 44.025182)"><g><path d="M 5.746094 -7.925781 L 3.34375 -1.082031 L 0.9375 -7.925781 L 0 -7.925781 L 2.867188 0 L 3.804688 0 L 6.671875 -7.925781 Z M 5.746094 -7.925781 "/></g></g></g><g fill="#ffffff" fill-opacity="1"><g transform="translate(178.163222, 44.025182)"><g><path d="M 1.03125 0 L 1.875 0 L 1.875 -7.925781 L 1.03125 -7.925781 Z M 1.03125 0 "/></g></g></g><g fill="#ffffff" fill-opacity="1"><g transform="translate(186.339097, 44.025182)"><g><path d="M 4.714844 0.105469 C 6.234375 0.105469 7.554688 -0.726562 8.253906 -1.953125 L 7.527344 -2.363281 C 6.988281 -1.386719 5.929688 -0.738281 4.714844 -0.738281 C 2.933594 -0.738281 1.492188 -2.167969 1.492188 -3.960938 C 1.492188 -5.757812 2.933594 -7.1875 4.714844 -7.1875 C 5.929688 -7.1875 6.988281 -6.539062 7.527344 -5.5625 L 8.253906 -5.96875 C 7.554688 -7.199219 6.234375 -8.03125 4.714844 -8.03125 C 2.46875 -8.03125 0.648438 -6.207031 0.648438 -3.960938 C 0.648438 -1.71875 2.46875 0.105469 4.714844 0.105469 Z M 4.714844 0.105469 "/></g></g></g><g fill="#ffffff" fill-opacity="1"><g transform="translate(200.31088, 44.025182)"><g><path d="M 5.363281 -7.105469 L 5.363281 -7.925781 L 1.03125 -7.925781 L 1.03125 0 L 5.363281 0 L 5.363281 -0.820312 L 1.875 -0.820312 L 1.875 -3.554688 L 4.914062 -3.554688 L 4.914062 -4.371094 L 1.875 -4.371094 L 1.875 -7.105469 Z M 5.363281 -7.105469 "/></g></g></g><g fill="#ffffff" fill-opacity="1"><g transform="translate(211.747789, 44.025182)"><g><path d="M 2.957031 0.105469 C 4.304688 0.105469 5.402344 -0.699219 5.402344 -2.085938 C 5.402344 -4.78125 1.546875 -4.121094 1.546875 -6.011719 C 1.546875 -6.800781 2.191406 -7.1875 2.933594 -7.1875 C 3.539062 -7.1875 4.042969 -6.933594 4.359375 -6.484375 L 5.019531 -7.039062 C 4.582031 -7.59375 3.816406 -8.03125 2.90625 -8.03125 C 1.691406 -8.03125 0.699219 -7.238281 0.699219 -5.945312 C 0.699219 -3.394531 4.558594 -4.027344 4.558594 -2.0625 C 4.558594 -1.214844 3.855469 -0.738281 2.972656 -0.738281 C 2.074219 -0.738281 1.425781 -1.226562 1.148438 -1.953125 L 0.382812 -1.503906 C 0.792969 -0.527344 1.785156 0.105469 2.957031 0.105469 Z M 2.957031 0.105469 "/></g></g></g></svg>