<svg xmlns="http://www.w3.org/2000/svg" xmlns:xlink="http://www.w3.org/1999/xlink" width="235" zoomAndPan="magnify" viewBox="0 0 176.25 48.75" height="65" preserveAspectRatio="xMidYMid meet" version="1.0"><defs><g/></defs><g fill="#13121b" fill-opacity="1"><g transform="translate(7.02477, 20.076851)"><g><path d="M 6.613281 -4.390625 C 7.875 -4.765625 8.765625 -5.9375 8.765625 -7.394531 C 8.765625 -9.207031 7.414062 -10.667969 5.582031 -10.667969 L 1.050781 -10.667969 L 1.050781 0 L 3.394531 0 L 3.394531 -4.125 L 4.335938 -4.125 L 6.96875 0 L 9.601562 0 Z M 5.226562 -6.0625 L 3.394531 -6.0625 L 3.394531 -8.585938 L 5.226562 -8.585938 C 5.972656 -8.585938 6.523438 -8.054688 6.523438 -7.324219 C 6.523438 -6.578125 5.972656 -6.0625 5.226562 -6.0625 Z M 5.226562 -6.0625 "/></g></g></g><g fill="#13121b" fill-opacity="1"><g transform="translate(16.529179, 20.076851)"><g><path d="M 6.132812 0.140625 C 9.171875 0.140625 11.609375 -2.3125 11.609375 -5.332031 C 11.609375 -8.355469 9.171875 -10.808594 6.132812 -10.808594 C 3.109375 -10.808594 0.65625 -8.355469 0.65625 -5.332031 C 0.65625 -2.3125 3.109375 0.140625 6.132812 0.140625 Z M 6.132812 -2.152344 C 4.335938 -2.152344 2.96875 -3.539062 2.96875 -5.332031 C 2.96875 -7.128906 4.335938 -8.515625 6.132812 -8.515625 C 7.945312 -8.515625 9.316406 -7.128906 9.316406 -5.332031 C 9.316406 -3.539062 7.945312 -2.152344 6.132812 -2.152344 Z M 6.132812 -2.152344 "/></g></g></g><g fill="#13121b" fill-opacity="1"><g transform="translate(28.804971, 20.076851)"><g><path d="M 6.132812 0.140625 C 8.25 0.140625 10.078125 -1.050781 10.988281 -2.792969 L 8.960938 -3.839844 C 8.445312 -2.828125 7.394531 -2.152344 6.132812 -2.152344 C 4.335938 -2.152344 2.96875 -3.539062 2.96875 -5.332031 C 2.96875 -7.128906 4.335938 -8.515625 6.132812 -8.515625 C 7.394531 -8.515625 8.445312 -7.839844 8.960938 -6.828125 L 10.988281 -7.875 C 10.078125 -9.617188 8.25 -10.808594 6.132812 -10.808594 C 3.109375 -10.808594 0.65625 -8.355469 0.65625 -5.332031 C 0.65625 -2.3125 3.109375 0.140625 6.132812 0.140625 Z M 6.132812 0.140625 "/></g></g></g><g fill="#13121b" fill-opacity="1"><g transform="translate(40.245793, 20.076851)"><g><path d="M 7.734375 -10.667969 L 7.734375 -6.382812 L 3.394531 -6.382812 L 3.394531 -10.667969 L 1.050781 -10.667969 L 1.050781 0 L 3.394531 0 L 3.394531 -4.300781 L 7.734375 -4.300781 L 7.734375 0 L 10.0625 0 L 10.0625 -10.667969 Z M 7.734375 -10.667969 "/></g></g></g><g fill="#13121b" fill-opacity="1"><g transform="translate(51.366847, 20.076851)"><g><path d="M 7.554688 -8.605469 L 7.554688 -10.667969 L 1.136719 -10.667969 L 1.136719 0 L 3.484375 0 L 3.484375 -4.300781 L 6.96875 -4.300781 L 6.96875 -6.363281 L 3.484375 -6.363281 L 3.484375 -8.605469 Z M 7.554688 -8.605469 "/></g></g></g><g fill="#13121b" fill-opacity="1"><g transform="translate(59.094733, 20.076851)"><g><path d="M 6.132812 0.140625 C 9.171875 0.140625 11.609375 -2.3125 11.609375 -5.332031 C 11.609375 -8.355469 9.171875 -10.808594 6.132812 -10.808594 C 3.109375 -10.808594 0.65625 -8.355469 0.65625 -5.332031 C 0.65625 -2.3125 3.109375 0.140625 6.132812 0.140625 Z M 6.132812 -2.152344 C 4.335938 -2.152344 2.96875 -3.539062 2.96875 -5.332031 C 2.96875 -7.128906 4.335938 -8.515625 6.132812 -8.515625 C 7.945312 -8.515625 9.316406 -7.128906 9.316406 -5.332031 C 9.316406 -3.539062 7.945312 -2.152344 6.132812 -2.152344 Z M 6.132812 -2.152344 "/></g></g></g><g fill="#13121b" fill-opacity="1"><g transform="translate(71.370525, 20.076851)"><g><path d="M 6.613281 -4.390625 C 7.875 -4.765625 8.765625 -5.9375 8.765625 -7.394531 C 8.765625 -9.207031 7.414062 -10.667969 5.582031 -10.667969 L 1.050781 -10.667969 L 1.050781 0 L 3.394531 0 L 3.394531 -4.125 L 4.335938 -4.125 L 6.96875 0 L 9.601562 0 Z M 5.226562 -6.0625 L 3.394531 -6.0625 L 3.394531 -8.585938 L 5.226562 -8.585938 C 5.972656 -8.585938 6.523438 -8.054688 6.523438 -7.324219 C 6.523438 -6.578125 5.972656 -6.0625 5.226562 -6.0625 Z M 5.226562 -6.0625 "/></g></g></g><g fill="#13121b" fill-opacity="1"><g transform="translate(80.874935, 20.076851)"><g><path d="M 1.050781 0 L 4.570312 0 C 7.503906 0 9.902344 -2.382812 9.902344 -5.332031 C 9.902344 -8.285156 7.503906 -10.667969 4.570312 -10.667969 L 1.050781 -10.667969 Z M 3.394531 -2.078125 L 3.394531 -8.585938 L 4.550781 -8.585938 C 6.238281 -8.585938 7.554688 -7.183594 7.554688 -5.332031 C 7.554688 -3.484375 6.238281 -2.078125 4.550781 -2.078125 Z M 3.394531 -2.078125 "/></g></g></g><g fill="#13121b" fill-opacity="1"><g transform="translate(91.4275, 20.076851)"><g/></g></g><g fill="#13121b" fill-opacity="1"><g transform="translate(95.691162, 20.076851)"><g><path d="M 5.582031 -10.667969 L 1.050781 -10.667969 L 1.050781 0 L 3.394531 0 L 3.394531 -4.320312 L 5.582031 -4.320312 C 7.378906 -4.320312 8.765625 -5.652344 8.765625 -7.449219 C 8.765625 -9.226562 7.378906 -10.667969 5.582031 -10.667969 Z M 5.207031 -6.257812 L 3.394531 -6.257812 L 3.394531 -8.605469 L 5.207031 -8.605469 C 5.957031 -8.605469 6.523438 -8.125 6.523438 -7.429688 C 6.523438 -6.71875 5.957031 -6.257812 5.207031 -6.257812 Z M 5.207031 -6.257812 "/></g></g></g><g fill="#13121b" fill-opacity="1"><g transform="translate(104.52049, 20.076851)"><g><path d="M 3.394531 -2.078125 L 3.394531 -10.667969 L 1.050781 -10.667969 L 1.050781 0 L 6.933594 0 L 6.933594 -2.078125 Z M 3.394531 -2.078125 "/></g></g></g><g fill="#13121b" fill-opacity="1"><g transform="translate(111.484475, 20.076851)"><g><path d="M 5.421875 0.140625 C 7.945312 0.140625 9.867188 -1.40625 9.867188 -3.414062 L 9.867188 -10.667969 L 7.519531 -10.667969 L 7.519531 -3.859375 C 7.519531 -2.773438 6.613281 -1.9375 5.421875 -1.9375 C 4.25 -1.9375 3.34375 -2.773438 3.34375 -3.859375 L 3.34375 -10.667969 L 0.996094 -10.667969 L 0.996094 -3.414062 C 0.996094 -1.40625 2.933594 0.140625 5.421875 0.140625 Z M 5.421875 0.140625 "/></g></g></g><g fill="#13121b" fill-opacity="1"><g transform="translate(122.339047, 20.076851)"><g><path d="M 10.347656 -10.667969 L 6.949219 -3.289062 L 3.589844 -10.667969 L 1.050781 -10.667969 L 1.050781 0 L 3.394531 0 L 3.394531 -6.363281 L 6.277344 0 L 7.625 0 L 10.523438 -6.347656 L 10.523438 0 L 12.871094 0 L 12.871094 -10.667969 Z M 10.347656 -10.667969 "/></g></g></g><g fill="#13121b" fill-opacity="1"><g transform="translate(136.249245, 20.076851)"><g><path d="M 7.464844 -5.40625 C 8.265625 -5.832031 8.78125 -6.578125 8.78125 -7.699219 C 8.78125 -9.582031 7.359375 -10.667969 5.5625 -10.667969 L 1.050781 -10.667969 L 1.050781 0 L 5.972656 0 C 7.75 0 9.136719 -1.03125 9.136719 -2.914062 C 9.136719 -4.214844 8.460938 -5.011719 7.464844 -5.40625 Z M 6.433594 -7.449219 C 6.433594 -6.828125 5.921875 -6.292969 5.28125 -6.292969 L 3.394531 -6.292969 L 3.394531 -8.585938 L 5.28125 -8.585938 C 5.921875 -8.585938 6.433594 -8.089844 6.433594 -7.449219 Z M 5.636719 -2.078125 L 3.394531 -2.078125 L 3.394531 -4.375 L 5.636719 -4.375 C 6.292969 -4.375 6.792969 -3.839844 6.792969 -3.21875 C 6.792969 -2.578125 6.292969 -2.078125 5.636719 -2.078125 Z M 5.636719 -2.078125 "/></g></g></g><g fill="#13121b" fill-opacity="1"><g transform="translate(145.895782, 20.076851)"><g><path d="M 1.136719 0 L 3.484375 0 L 3.484375 -10.667969 L 1.136719 -10.667969 Z M 1.136719 0 "/></g></g></g><g fill="#13121b" fill-opacity="1"><g transform="translate(150.496984, 20.076851)"><g><path d="M 8.710938 -10.667969 L 8.710938 -3.609375 L 3.464844 -10.667969 L 1.050781 -10.667969 L 1.050781 0 L 3.394531 0 L 3.394531 -7.074219 L 8.621094 0 L 11.039062 0 L 11.039062 -10.667969 Z M 8.710938 -10.667969 "/></g></g></g><g fill="#13121b" fill-opacity="1"><g transform="translate(162.595125, 20.076851)"><g><path d="M 6.132812 -5.847656 L 6.132812 -4.019531 L 9.066406 -4.019531 C 8.570312 -2.898438 7.464844 -2.152344 6.152344 -2.152344 C 4.355469 -2.152344 2.96875 -3.539062 2.96875 -5.332031 C 2.96875 -7.128906 4.355469 -8.515625 6.152344 -8.515625 C 7.414062 -8.515625 8.445312 -7.839844 8.976562 -6.828125 L 11.003906 -7.875 C 10.078125 -9.617188 8.25 -10.808594 6.152344 -10.808594 C 3.109375 -10.808594 0.675781 -8.355469 0.675781 -5.332031 C 0.675781 -2.3125 3.109375 0.140625 6.152344 0.140625 C 9.171875 0.140625 11.625 -2.3125 11.625 -5.332031 L 11.625 -5.847656 Z M 6.132812 -5.847656 "/></g></g></g><g fill="#830000" fill-opacity="1"><g transform="translate(14.027814, 34.501928)"><g><path d="M 4.375 -2.898438 L 3.886719 -2.898438 L 3.886719 -3.773438 L 3.347656 -3.773438 L 3.347656 -2.898438 L 2.289062 -2.898438 C 1.734375 -2.898438 1.292969 -3.289062 1.292969 -3.835938 C 1.292969 -4.363281 1.71875 -4.652344 2.195312 -4.652344 L 3.332031 -4.652344 L 3.332031 -5.207031 L 2.101562 -5.207031 C 1.355469 -5.207031 0.746094 -4.652344 0.746094 -3.863281 C 0.746094 -3.367188 0.988281 -2.933594 1.371094 -2.65625 C 0.972656 -2.394531 0.703125 -1.933594 0.703125 -1.421875 C 0.703125 -0.597656 1.421875 0 2.324219 0 C 3.253906 0 3.886719 -0.625 3.886719 -1.476562 L 3.886719 -2.367188 L 4.375 -2.367188 Z M 2.316406 -0.476562 C 1.710938 -0.476562 1.207031 -0.867188 1.207031 -1.441406 C 1.207031 -1.960938 1.640625 -2.367188 2.179688 -2.367188 L 3.347656 -2.367188 L 3.347656 -1.476562 C 3.347656 -0.902344 2.949219 -0.476562 2.316406 -0.476562 Z M 2.316406 -0.476562 "/></g></g></g><g fill="#830000" fill-opacity="1"><g transform="translate(22.211009, 34.501928)"><g/></g></g><g fill="#830000" fill-opacity="1"><g transform="translate(27.774008, 34.501928)"><g><path d="M 1.1875 -0.554688 L 1.1875 -5.207031 L 0.632812 -5.207031 L 0.632812 0 L 3.125 0 L 3.125 -0.554688 Z M 1.1875 -0.554688 "/></g></g></g><g fill="#830000" fill-opacity="1"><g transform="translate(34.447553, 34.501928)"><g><path d="M 3.097656 0.0703125 C 4.582031 0.0703125 5.769531 -1.128906 5.769531 -2.601562 C 5.769531 -4.078125 4.582031 -5.277344 3.097656 -5.277344 C 1.621094 -5.277344 0.425781 -4.078125 0.425781 -2.601562 C 0.425781 -1.128906 1.621094 0.0703125 3.097656 0.0703125 Z M 3.097656 -0.484375 C 1.925781 -0.484375 0.980469 -1.421875 0.980469 -2.601562 C 0.980469 -3.785156 1.925781 -4.71875 3.097656 -4.71875 C 4.277344 -4.71875 5.214844 -3.785156 5.214844 -2.601562 C 5.214844 -1.421875 4.277344 -0.484375 3.097656 -0.484375 Z M 3.097656 -0.484375 "/></g></g></g><g fill="#830000" fill-opacity="1"><g transform="translate(44.123045, 34.501928)"><g><path d="M 3.097656 0.0703125 C 4.09375 0.0703125 4.964844 -0.476562 5.421875 -1.285156 L 4.945312 -1.554688 C 4.589844 -0.910156 3.894531 -0.484375 3.097656 -0.484375 C 1.925781 -0.484375 0.980469 -1.421875 0.980469 -2.601562 C 0.980469 -3.785156 1.925781 -4.71875 3.097656 -4.71875 C 3.894531 -4.71875 4.589844 -4.296875 4.945312 -3.652344 L 5.421875 -3.921875 C 4.964844 -4.730469 4.09375 -5.277344 3.097656 -5.277344 C 1.621094 -5.277344 0.425781 -4.078125 0.425781 -2.601562 C 0.425781 -1.128906 1.621094 0.0703125 3.097656 0.0703125 Z M 3.097656 0.0703125 "/></g></g></g><g fill="#830000" fill-opacity="1"><g transform="translate(53.303997, 34.501928)"><g><path d="M 3.738281 0 L 4.511719 0 L 2.039062 -2.804688 L 4.417969 -5.207031 L 3.644531 -5.207031 L 1.554688 -3.070312 L 1.1875 -3.070312 L 1.1875 -5.207031 L 0.632812 -5.207031 L 0.632812 0 L 1.1875 0 L 1.1875 -2.550781 L 1.5625 -2.550781 Z M 3.738281 0 "/></g></g></g><g fill="#830000" fill-opacity="1"><g transform="translate(61.226911, 34.501928)"><g><path d="M 1.945312 0.0703125 C 2.828125 0.0703125 3.550781 -0.460938 3.550781 -1.371094 C 3.550781 -3.140625 1.015625 -2.707031 1.015625 -3.949219 C 1.015625 -4.46875 1.441406 -4.71875 1.925781 -4.71875 C 2.324219 -4.71875 2.65625 -4.554688 2.863281 -4.261719 L 3.296875 -4.625 C 3.011719 -4.988281 2.507812 -5.277344 1.910156 -5.277344 C 1.109375 -5.277344 0.460938 -4.753906 0.460938 -3.90625 C 0.460938 -2.230469 2.992188 -2.648438 2.992188 -1.355469 C 2.992188 -0.796875 2.535156 -0.484375 1.953125 -0.484375 C 1.363281 -0.484375 0.9375 -0.808594 0.753906 -1.285156 L 0.25 -0.988281 C 0.519531 -0.347656 1.171875 0.0703125 1.945312 0.0703125 Z M 1.945312 0.0703125 "/></g></g></g><g fill="#830000" fill-opacity="1"><g transform="translate(68.499118, 34.501928)"><g><path d="M 5.222656 -5.207031 L 3.21875 -0.667969 L 1.222656 -5.207031 L 0.632812 -5.207031 L 0.632812 0 L 1.1875 0 L 1.1875 -4.113281 L 2.984375 0 L 3.445312 0 L 5.257812 -4.09375 L 5.257812 0 L 5.804688 0 L 5.804688 -5.207031 Z M 5.222656 -5.207031 "/></g></g></g><g fill="#830000" fill-opacity="1"><g transform="translate(78.408867, 34.501928)"><g><path d="M 0.675781 0 L 1.230469 0 L 1.230469 -5.207031 L 0.675781 -5.207031 Z M 0.675781 0 "/></g></g></g><g fill="#830000" fill-opacity="1"><g transform="translate(83.780997, 34.501928)"><g><path d="M 3.515625 -5.207031 L 0.078125 -5.207031 L 0.078125 -4.652344 L 1.519531 -4.652344 L 1.519531 0 L 2.074219 0 L 2.074219 -4.652344 L 3.515625 -4.652344 Z M 3.515625 -5.207031 "/></g></g></g><g fill="#830000" fill-opacity="1"><g transform="translate(90.844966, 34.501928)"><g><path d="M 4.0625 -5.207031 L 4.0625 -2.882812 L 1.1875 -2.882812 L 1.1875 -5.207031 L 0.632812 -5.207031 L 0.632812 0 L 1.1875 0 L 1.1875 -2.324219 L 4.0625 -2.324219 L 4.0625 0 L 4.617188 0 L 4.617188 -5.207031 Z M 4.0625 -5.207031 "/></g></g></g><g fill="#830000" fill-opacity="1"><g transform="translate(99.566077, 34.501928)"><g/></g></g><g fill="#830000" fill-opacity="1"><g transform="translate(105.129073, 34.501928)"><g><path d="M 1.945312 0.0703125 C 2.828125 0.0703125 3.550781 -0.460938 3.550781 -1.371094 C 3.550781 -3.140625 1.015625 -2.707031 1.015625 -3.949219 C 1.015625 -4.46875 1.441406 -4.71875 1.925781 -4.71875 C 2.324219 -4.71875 2.65625 -4.554688 2.863281 -4.261719 L 3.296875 -4.625 C 3.011719 -4.988281 2.507812 -5.277344 1.910156 -5.277344 C 1.109375 -5.277344 0.460938 -4.753906 0.460938 -3.90625 C 0.460938 -2.230469 2.992188 -2.648438 2.992188 -1.355469 C 2.992188 -0.796875 2.535156 -0.484375 1.953125 -0.484375 C 1.363281 -0.484375 0.9375 -0.808594 0.753906 -1.285156 L 0.25 -0.988281 C 0.519531 -0.347656 1.171875 0.0703125 1.945312 0.0703125 Z M 1.945312 0.0703125 "/></g></g></g><g fill="#830000" fill-opacity="1"><g transform="translate(112.401275, 34.501928)"><g><path d="M 3.523438 -4.667969 L 3.523438 -5.207031 L 0.675781 -5.207031 L 0.675781 0 L 3.523438 0 L 3.523438 -0.539062 L 1.230469 -0.539062 L 1.230469 -2.335938 L 3.226562 -2.335938 L 3.226562 -2.871094 L 1.230469 -2.871094 L 1.230469 -4.667969 Z M 3.523438 -4.667969 "/></g></g></g><g fill="#830000" fill-opacity="1"><g transform="translate(119.916405, 34.501928)"><g><path d="M 2.742188 -2.378906 C 3.425781 -2.472656 3.949219 -3.046875 3.949219 -3.75 C 3.949219 -4.5625 3.296875 -5.207031 2.5 -5.207031 L 0.632812 -5.207031 L 0.632812 0 L 1.1875 0 L 1.1875 -2.351562 L 2.167969 -2.351562 L 3.644531 0 L 4.277344 0 Z M 1.1875 -2.882812 L 1.1875 -4.652344 L 2.464844 -4.652344 C 2.984375 -4.652344 3.394531 -4.285156 3.394531 -3.765625 C 3.394531 -3.238281 2.992188 -2.882812 2.464844 -2.882812 Z M 1.1875 -2.882812 "/></g></g></g><g fill="#830000" fill-opacity="1"><g transform="translate(127.74388, 34.501928)"><g><path d="M 3.773438 -5.207031 L 2.195312 -0.710938 L 0.617188 -5.207031 L 0 -5.207031 L 1.882812 0 L 2.5 0 L 4.382812 -5.207031 Z M 3.773438 -5.207031 "/></g></g></g><g fill="#830000" fill-opacity="1"><g transform="translate(135.59738, 34.501928)"><g><path d="M 0.675781 0 L 1.230469 0 L 1.230469 -5.207031 L 0.675781 -5.207031 Z M 0.675781 0 "/></g></g></g><g fill="#830000" fill-opacity="1"><g transform="translate(140.969506, 34.501928)"><g><path d="M 3.097656 0.0703125 C 4.09375 0.0703125 4.964844 -0.476562 5.421875 -1.285156 L 4.945312 -1.554688 C 4.589844 -0.910156 3.894531 -0.484375 3.097656 -0.484375 C 1.925781 -0.484375 0.980469 -1.421875 0.980469 -2.601562 C 0.980469 -3.785156 1.925781 -4.71875 3.097656 -4.71875 C 3.894531 -4.71875 4.589844 -4.296875 4.945312 -3.652344 L 5.421875 -3.921875 C 4.964844 -4.730469 4.09375 -5.277344 3.097656 -5.277344 C 1.621094 -5.277344 0.425781 -4.078125 0.425781 -2.601562 C 0.425781 -1.128906 1.621094 0.0703125 3.097656 0.0703125 Z M 3.097656 0.0703125 "/></g></g></g><g fill="#830000" fill-opacity="1"><g transform="translate(150.150462, 34.501928)"><g><path d="M 3.523438 -4.667969 L 3.523438 -5.207031 L 0.675781 -5.207031 L 0.675781 0 L 3.523438 0 L 3.523438 -0.539062 L 1.230469 -0.539062 L 1.230469 -2.335938 L 3.226562 -2.335938 L 3.226562 -2.871094 L 1.230469 -2.871094 L 1.230469 -4.667969 Z M 3.523438 -4.667969 "/></g></g></g><g fill="#830000" fill-opacity="1"><g transform="translate(157.665599, 34.501928)"><g><path d="M 1.945312 0.0703125 C 2.828125 0.0703125 3.550781 -0.460938 3.550781 -1.371094 C 3.550781 -3.140625 1.015625 -2.707031 1.015625 -3.949219 C 1.015625 -4.46875 1.441406 -4.71875 1.925781 -4.71875 C 2.324219 -4.71875 2.65625 -4.554688 2.863281 -4.261719 L 3.296875 -4.625 C 3.011719 -4.988281 2.507812 -5.277344 1.910156 -5.277344 C 1.109375 -5.277344 0.460938 -4.753906 0.460938 -3.90625 C 0.460938 -2.230469 2.992188 -2.648438 2.992188 -1.355469 C 2.992188 -0.796875 2.535156 -0.484375 1.953125 -0.484375 C 1.363281 -0.484375 0.9375 -0.808594 0.753906 -1.285156 L 0.25 -0.988281 C 0.519531 -0.347656 1.171875 0.0703125 1.945312 0.0703125 Z M 1.945312 0.0703125 "/></g></g></g></svg>